<svg id="Capa_1" enable-background="new 0 0 512 512" height="512" viewBox="0 0 512 512" width="512" xmlns="http://www.w3.org/2000/svg"><g><g><path clip-rule="evenodd" d="m137.337 51.993-126.912 228.921 38.43 17.522 32.648-17.522 90.76-182.81 27.713 16.003c10.162 5.87 23.332 2.336 29.202-7.826 5.87-10.192 2.365-23.333-7.826-29.232l-56.272-32.474c-9.667-5.578-22.311-2.336-27.743 7.418z" fill="#375e7d" fill-rule="evenodd"/></g><g><path clip-rule="evenodd" d="m339.708 98.104 90.789 182.81 41.409 15.039 29.669-15.039-126.942-228.921c-5.402-9.754-18.076-12.995-27.742-7.418l-56.243 32.474c-10.192 5.899-13.725 19.04-7.826 29.232 5.87 10.163 19.011 13.696 29.202 7.826z" fill="#375e7d" fill-rule="evenodd"/></g><g><path clip-rule="evenodd" d="m430.497 280.914h-348.994-71.078c-5.665 0-10.308 4.585-10.425 10.192v.234 26.224.905c.029 8.44.876 11.039 7.972 17.084l26.194 22.369v83.812c0 15.624 12.791 28.414 28.443 28.414h133.921l51.016-61.18c2.103-2.541 5.286-3.796 8.439-3.796 3.183 0 6.337 1.256 8.439 3.796l51.045 61.18h133.921c15.623 0 28.414-12.791 28.414-28.414v-83.812l26.223-22.369c7.096-6.045 7.914-8.644 7.972-17.084v-.905-26.224-.234c-.117-5.607-4.76-10.192-10.425-10.192z" fill="#eff6ff" fill-rule="evenodd"/></g><g><path clip-rule="evenodd" d="m223.454 319.549h-145.368c-2.92 0-5.286 2.365-5.286 5.286v101.422c0 2.891 2.365 5.256 5.286 5.256h100.338l41.701-49.995c6.804-8.294 8.206-12.878 8.206-25.436v-31.685c0-2.657-2.19-4.848-4.877-4.848z" fill="#9fd4fe" fill-rule="evenodd"/></g><g><path clip-rule="evenodd" d="m283.669 324.397.029 39.979c0 7.622.058 7.651 2.745 10.893l47.103 56.245h100.368c2.891 0 5.256-2.365 5.256-5.256v-101.423c0-2.92-2.365-5.286-5.256-5.286h-145.397c-2.658 0-4.848 2.191-4.848 4.848z" fill="#eb5468" fill-rule="evenodd"/></g><g><path clip-rule="evenodd" d="m430.497 280.914h-100.192c8.965 12.032 16.499 24.968 22.427 38.635h81.182c2.891 0 5.256 2.365 5.256 5.286v34.751 66.67c0 2.891-2.365 5.256-5.256 5.256h-70.406c-2.979 13.404-7.447 26.341-13.258 38.635h99.141c15.623 0 28.414-12.791 28.414-28.414v-83.812l26.223-22.369c7.096-6.045 7.914-8.644 7.972-17.084v-.905-26.224-.234c-.117-5.607-4.76-10.192-10.425-10.192h-28.939-42.139z" fill="#d9eeff" fill-rule="evenodd"/></g><g><path clip-rule="evenodd" d="m384.299 319.549c7.855 18.077 12.265 40.271 12.265 60.304s-3.125 35.803-8.848 51.66h46.198c2.891 0 5.256-2.365 5.256-5.256v-66.67-34.751c0-2.92-2.365-5.286-5.256-5.286h-49.615z" fill="#e5384f" fill-rule="evenodd"/></g><g><path clip-rule="evenodd" d="m228.331 356.082v-31.685c0-2.657-2.19-4.848-4.877-4.848h-75.312c3.855 13.375 5.957 27.743 5.957 42.665 0 25.406-6.045 49.148-16.558 69.298h40.883l41.701-49.995c6.804-8.293 8.206-12.878 8.206-25.435z" fill="#85beef" fill-rule="evenodd"/></g><g><path clip-rule="evenodd" d="m81.503 280.914 24.413-49.178h-68.245l-27.246 49.178z" fill="#2b4d66" fill-rule="evenodd"/></g><g><path clip-rule="evenodd" d="m406.084 231.736 24.413 49.178h42.139 28.939l-27.275-49.178z" fill="#2b4d66" fill-rule="evenodd"/></g></g></svg>